<svg width="923" height="456" viewBox="0 0 923 456" fill="none" xmlns="http://www.w3.org/2000/svg">
<g style="mix-blend-mode:multiply" filter="url(#filter0_d_27_268)">
<g clip-path="url(#clip0_27_268)">
<rect x="8" width="440" height="440" rx="30" fill="#D9D9D9"/>
<g filter="url(#filter1_d_27_268)">
<path d="M924.988 -9.99048H8V440H924.988V-9.99048Z" fill="#00069E"/>
<mask id="mask0_27_268" style="mask-type:luminance" maskUnits="userSpaceOnUse" x="8" y="-10" width="917" height="451">
<path d="M924.988 -9.99048H8V440H924.988V-9.99048Z" fill="white"/>
</mask>
<g mask="url(#mask0_27_268)">
<path d="M924.988 -9.99048H8V440H924.988V-9.99048Z" fill="url(#paint0_radial_27_268)"/>
</g>
<mask id="mask1_27_268" style="mask-type:luminance" maskUnits="userSpaceOnUse" x="8" y="-10" width="918" height="450">
<path d="M8.98767 439.991L925.976 439.991L925.976 -9.99982L8.98767 -9.99982L8.98767 439.991Z" fill="white"/>
</mask>
<g mask="url(#mask1_27_268)">
<path style="mix-blend-mode:overlay" d="M925.988 -9.99072L311.117 442.601H680.149L925.988 264.396V-9.99072Z" fill="url(#paint1_linear_27_268)"/>
<path style="mix-blend-mode:overlay" d="M173.789 -304.096L-441.07 148.496H-72.0495L173.789 -29.7096V-304.096Z" fill="url(#paint2_linear_27_268)"/>
<path style="mix-blend-mode:soft-light" opacity="0.61" d="M24.2709 449.774L662.849 -9.77474L792.682 -9.99072L24.2709 552.921V449.774Z" fill="url(#paint3_linear_27_268)"/>
<path style="mix-blend-mode:soft-light" d="M-73.8101 292.115L377.556 -42.687H514.199L-73.8101 403.884V292.115Z" fill="url(#paint4_linear_27_268)"/>
<path style="mix-blend-mode:soft-light" d="M184.524 489.885L635.902 155.092H772.533L184.524 601.663V489.885Z" fill="url(#paint5_linear_27_268)"/>
<g style="mix-blend-mode:overlay" opacity="0.83">
<path d="M443.298 -171.249C454.717 -171.249 466.137 -168.045 474.854 -161.628C492.277 -148.804 492.277 -127.996 474.854 -115.171L161.941 115.161C144.519 127.986 116.263 127.986 98.8281 115.161C81.4053 102.336 81.4053 81.5285 98.8281 68.7038L411.741 -161.628C420.459 -168.045 431.878 -171.249 443.298 -171.249Z" fill="url(#paint6_linear_27_268)"/>
</g>
<g style="mix-blend-mode:overlay" opacity="0.44">
<path d="M227.109 263.244C238.528 263.244 249.948 266.448 258.665 272.865C276.088 285.689 276.088 306.497 258.665 319.322L-54.2477 549.654C-71.6705 562.479 -99.926 562.479 -117.361 549.654C-134.784 536.829 -134.784 516.022 -117.361 503.197L195.552 272.865C204.269 266.448 215.689 263.244 227.109 263.244Z" fill="url(#paint7_linear_27_268)"/>
</g>
</g>
</g>
</g>
<g clip-path="url(#clip1_27_268)">
<rect x="475" width="440" height="440" rx="30" fill="#D9D9D9"/>
<g filter="url(#filter2_d_27_268)">
<path d="M923.988 0.00915527H7V440H923.988V0.00915527Z" fill="#00069E"/>
<mask id="mask2_27_268" style="mask-type:luminance" maskUnits="userSpaceOnUse" x="7" y="0" width="917" height="441">
<path d="M923.988 0.00915527H7V440H923.988V0.00915527Z" fill="white"/>
</mask>
<g mask="url(#mask2_27_268)">
<path d="M923.988 0.00915527H7V440H923.988V0.00915527Z" fill="url(#paint8_radial_27_268)"/>
</g>
<mask id="mask3_27_268" style="mask-type:luminance" maskUnits="userSpaceOnUse" x="7" y="0" width="918" height="440">
<path d="M7.98767 439.991L924.976 439.991L924.976 -6.10352e-05L7.98767 -6.10352e-05L7.98767 439.991Z" fill="white"/>
</mask>
<g mask="url(#mask3_27_268)">
<path style="mix-blend-mode:overlay" d="M924.988 0.00927734L310.117 442.543H679.149L924.988 268.298V0.00927734Z" fill="url(#paint9_linear_27_268)"/>
<path style="mix-blend-mode:soft-light" opacity="0.61" d="M23.2709 449.557L661.849 0.220464L791.682 0.00927734L23.2709 550.412V449.557Z" fill="url(#paint10_linear_27_268)"/>
<path style="mix-blend-mode:soft-light" d="M-74.8101 295.402L376.556 -31.9604H513.199L-74.8101 404.687V295.402Z" fill="url(#paint11_linear_27_268)"/>
<path style="mix-blend-mode:soft-light" d="M183.524 488.777L634.902 161.424H771.533L183.524 598.071V488.777Z" fill="url(#paint12_linear_27_268)"/>
<g style="mix-blend-mode:overlay" opacity="0.83">
<path d="M442.298 -157.666C453.717 -157.666 465.137 -154.533 473.854 -148.259C491.277 -135.719 491.277 -115.374 473.854 -102.834L160.941 122.38C143.519 134.919 115.263 134.919 97.8281 122.38C80.4053 109.84 80.4053 89.4947 97.8281 76.9549L410.741 -148.259C419.459 -154.533 430.878 -157.666 442.298 -157.666Z" fill="url(#paint13_linear_27_268)"/>
</g>
<g style="mix-blend-mode:overlay">
<path d="M1007.82 -102.421C1019.24 -102.421 1030.66 -99.2878 1039.38 -93.0135C1056.8 -80.4738 1056.8 -60.1286 1039.38 -47.5888L726.466 177.625C709.043 190.165 680.788 190.165 663.353 177.625C645.93 165.085 645.93 144.74 663.353 132.2L976.266 -93.0135C984.983 -99.2878 996.403 -102.421 1007.82 -102.421Z" fill="url(#paint14_linear_27_268)"/>
</g>
<g style="mix-blend-mode:overlay">
<path d="M893.407 -198.101C904.826 -198.101 916.246 -194.968 924.963 -188.694C942.386 -176.154 942.386 -155.809 924.963 -143.27L612.05 81.9443C594.627 94.484 566.372 94.484 548.937 81.9443C531.514 69.4045 531.514 49.0594 548.937 36.5196L861.85 -188.694C870.567 -194.968 881.987 -198.101 893.407 -198.101Z" fill="url(#paint15_linear_27_268)"/>
</g>
<g style="mix-blend-mode:overlay">
<path d="M1015.72 305.513C1027.14 305.513 1038.56 308.645 1047.28 314.92C1064.7 327.459 1064.7 347.805 1047.28 360.344L734.364 585.558C716.941 598.098 688.686 598.098 671.251 585.558C653.828 573.018 653.828 552.673 671.251 540.133L984.164 314.92C992.881 308.645 1004.3 305.513 1015.72 305.513Z" fill="url(#paint16_linear_27_268)"/>
</g>
<g style="mix-blend-mode:overlay" opacity="0.36">
<path d="M987.355 71.7366C998.775 71.7366 1010.19 74.8693 1018.91 81.1436C1036.33 93.6833 1036.33 114.029 1018.91 126.568L705.999 351.782C688.576 364.322 660.321 364.322 642.886 351.782C625.463 339.242 625.463 318.897 642.886 306.357L955.799 81.1436C964.516 74.8693 975.936 71.7366 987.355 71.7366Z" fill="url(#paint17_linear_27_268)"/>
</g>
</g>
</g>
</g>
</g>
<path d="M595.176 176.276C574.635 176.276 559.199 159.381 559.199 125.348C559.199 91.3156 574.635 74.4207 595.176 74.4207C615.596 74.4207 631.032 91.3156 631.032 125.348C631.032 159.381 615.596 176.276 595.176 176.276ZM595.176 164.972C608.303 164.972 618.756 151.845 618.756 125.348C618.756 98.973 608.303 85.7245 595.176 85.7245C581.928 85.7245 571.475 98.973 571.475 125.348C571.475 151.845 581.928 164.972 595.176 164.972ZM689.54 174.088V152.089H640.435V141.271L686.623 76.7301H701.694V141.271H717.617V152.089H701.694V174.088H689.54ZM653.562 141.271H689.54V90.7079L653.562 141.271ZM811.531 72.8406H823.564V176.641H811.531V72.8406ZM773.122 75.8793C773.001 91.8018 771.664 106.144 768.99 118.542L802.536 163.271L792.813 170.199L765.222 132.52C757.564 155.37 744.924 169.226 728.515 170.442V158.287C749.299 155.006 760.725 119.028 760.846 75.3931L773.122 75.8793Z" fill="white"/>
<path d="M558.956 298.454V290.189L593.475 255.548C605.872 243.029 610.734 235.128 610.734 228.2C610.734 216.775 602.955 210.09 590.801 210.09C577.674 210.09 570.624 220.057 570.624 230.874H557.862C557.862 213.25 570.624 198.786 590.922 198.786C610.491 198.786 623.375 210.576 623.375 228.079C623.375 238.532 617.419 247.405 602.834 262.355L577.309 287.393H626.657V298.454H558.956ZM672.51 300.642C651.604 300.642 638.72 288.001 637.991 270.984H650.632C650.996 281.437 658.775 289.581 672.51 289.581C686.123 289.581 694.267 281.802 694.267 272.078C694.267 261.139 685.515 254.697 670.808 254.697H660.112V244.123H670.808C683.206 244.123 691.593 237.073 691.593 226.985C691.593 217.504 684.057 209.725 671.173 209.725C658.046 209.725 650.875 218.963 650.875 229.294H638.112C638.112 212.156 651.239 198.786 671.173 198.786C691.228 198.786 704.233 211.305 704.233 226.62C704.233 238.532 695.847 246.797 686.852 248.985C696.698 250.808 706.786 258.465 706.786 271.957C706.786 288.244 692.93 300.642 672.51 300.642ZM815.594 197.814V242.057H726.866V197.814H738.777V210.333H803.804V197.814H815.594ZM738.777 232.454H803.804V219.571H738.777V232.454ZM719.451 252.266H823.13V262.476H777.307V278.642H765.153V262.476H719.451V252.266ZM738.899 271.835V289.581H817.782V299.791H726.623V271.835H738.899Z" fill="white"/>
<path d="M609.632 371.776V409.696H607.568V373.648H598.784V371.776H609.632ZM632.461 410.512C625.117 410.512 619.309 405.568 619.309 397.84C619.309 393.952 620.749 390.736 623.053 387.424L633.901 371.776H636.301L625.549 387.136C627.037 386.08 629.533 385.264 632.461 385.264C639.805 385.264 645.613 390.112 645.613 397.792C645.613 405.52 639.805 410.512 632.461 410.512ZM632.461 408.64C639.277 408.64 643.597 403.936 643.597 397.888C643.597 391.84 639.277 387.136 632.461 387.136C625.645 387.136 621.325 391.888 621.325 397.888C621.325 403.936 625.645 408.64 632.461 408.64ZM653.081 379.072C654.281 379.072 655.241 380.032 655.241 381.232C655.241 382.432 654.281 383.392 653.081 383.392C651.881 383.392 650.921 382.432 650.921 381.232C650.921 380.032 651.881 379.072 653.081 379.072ZM653.081 398.176C654.281 398.176 655.241 399.136 655.241 400.336C655.241 401.536 654.281 402.496 653.081 402.496C651.881 402.496 650.921 401.536 650.921 400.336C650.921 399.136 651.881 398.176 653.081 398.176ZM673.267 370.96C680.707 370.96 685.459 375.232 685.459 382C685.459 386.224 682.675 389.968 677.683 394.768L664.051 407.824H687.139V409.696H661.027V407.824L675.667 393.808C680.803 388.864 683.395 385.168 683.395 382C683.395 376.144 679.267 372.832 673.267 372.832C666.643 372.832 662.947 377.632 662.947 383.008H660.883C660.883 376.624 665.347 370.96 673.267 370.96ZM704.633 370.96C712.409 370.96 717.161 376 717.161 381.328C717.161 386.128 713.657 389.392 709.913 390.448C714.041 391.312 718.169 394.336 718.169 399.856C718.169 405.424 713.225 410.512 705.113 410.512C697.049 410.512 692.057 405.328 692.057 399.328H694.121C694.121 404.272 698.249 408.64 705.113 408.64C711.977 408.64 716.105 404.512 716.105 399.952C716.105 394.768 711.929 391.456 704.633 391.456H700.169V389.68H704.633C710.729 389.68 715.097 386.176 715.097 381.424C715.097 377.008 711.209 372.832 704.633 372.832C698.057 372.832 694.217 377.296 694.217 382.432H692.153C692.153 376.192 696.905 370.96 704.633 370.96ZM726.253 379.072C727.453 379.072 728.413 380.032 728.413 381.232C728.413 382.432 727.453 383.392 726.253 383.392C725.053 383.392 724.093 382.432 724.093 381.232C724.093 380.032 725.053 379.072 726.253 379.072ZM726.253 398.176C727.453 398.176 728.413 399.136 728.413 400.336C728.413 401.536 727.453 402.496 726.253 402.496C725.053 402.496 724.093 401.536 724.093 400.336C724.093 399.136 725.053 398.176 726.253 398.176ZM753.735 409.696V400.336H733.047V398.512L753.687 371.776H755.751V398.512H762.999V400.336H755.751V409.696H753.735ZM735.447 398.512H753.735V374.704L735.447 398.512ZM791.361 371.776V373.648L774.033 409.696H771.777L789.105 373.648H765.633V371.776H791.361Z" fill="white"/>
<path d="M298.679 204.077C296.976 206.876 294.055 208.854 290.191 209.28V206.541C294.42 205.933 296.915 202.616 297.28 198.661H290.708V195.923H297.28V192.485H300.353V195.923H306.864V198.661H300.353C300.262 199.696 300.079 200.7 299.775 201.643L307.838 206.967L306.164 209.249L298.679 204.077ZM310.971 192.819H313.984V218.803H310.971V192.819ZM300.049 214.482H300.292C303.791 214.482 306.955 214.178 308.811 213.357V216.156C306.955 216.917 303.882 217.251 300.322 217.251H289.673V214.482H297.067V208.915H300.049V214.482ZM340.026 210.892V196.562H320.523V193.732H343.159V210.892H340.026ZM331.719 214.726H344.894V217.555H318.94V214.726H328.616V203.134H331.719V214.726Z" fill="#FF997D"/>
<path d="M369.227 221.416C361.377 221.416 356.54 216.67 356.266 210.28H361.012C361.149 214.205 364.07 217.263 369.227 217.263C374.339 217.263 377.396 214.342 377.396 210.691C377.396 206.584 374.11 204.165 368.588 204.165H364.572V200.194H368.588C373.243 200.194 376.392 197.547 376.392 193.759C376.392 190.199 373.563 187.278 368.725 187.278C363.796 187.278 361.103 190.747 361.103 194.626H356.311C356.311 188.191 361.24 183.171 368.725 183.171C376.255 183.171 381.139 187.872 381.139 193.622C381.139 198.095 377.99 201.198 374.612 202.02C378.309 202.704 382.097 205.58 382.097 210.645C382.097 216.761 376.894 221.416 369.227 221.416ZM403.967 220.595V212.334H385.529V208.272L402.872 184.038H408.531V208.272H414.51V212.334H408.531V220.595H403.967ZM390.458 208.272H403.967V189.286L390.458 208.272Z" fill="#FF997D"/>
<path d="M300.679 255.632C298.976 258.431 296.055 260.409 292.191 260.835V258.096C296.42 257.488 298.915 254.171 299.28 250.216H292.708V247.478H299.28V244.04H302.353V247.478H308.864V250.216H302.353C302.262 251.25 302.079 252.255 301.775 253.198L309.838 258.522L308.164 260.804L300.679 255.632ZM312.971 244.374H315.984V270.358H312.971V244.374ZM302.049 266.037H302.292C305.791 266.037 308.955 265.733 310.811 264.912V267.711C308.955 268.471 305.882 268.806 302.322 268.806H291.673V266.037H299.067V260.469H302.049V266.037ZM342.391 244.374H345.403V270.358H342.391V256.94H336.001V254.111H342.391V244.374ZM331.65 248.086C331.62 251.068 331.346 253.776 330.89 256.179L339.348 266.828L336.944 268.563L330.007 259.618C328.273 265.094 325.2 268.35 321.245 268.806V265.824C325.839 264.973 328.516 257.731 328.608 248.086H321.853V245.317H338.283V248.086H331.65Z" fill="#A2E9F4"/>
<path d="M358.54 272.149V269.046L371.501 256.039C376.156 251.338 377.982 248.372 377.982 245.77C377.982 241.48 375.061 238.97 370.497 238.97C365.568 238.97 362.921 242.712 362.921 246.774H358.129C358.129 240.157 362.921 234.726 370.542 234.726C377.89 234.726 382.728 239.153 382.728 245.725C382.728 249.649 380.492 252.981 375.015 258.595L365.431 267.996H383.96V272.149H358.54ZM401.132 272.971C393.236 272.971 388.49 268.179 388.216 261.835H392.963C393.099 265.76 395.975 268.818 401.132 268.818C406.198 268.818 409.347 265.258 409.347 260.466C409.347 255.765 406.061 252.297 401.223 252.297C397.207 252.297 394.879 254.35 393.647 256.632H388.946L389.996 235.593H412.176V239.746H394.377L393.738 251.703C395.108 250.015 397.8 248.189 401.999 248.189C408.936 248.189 414.048 253.164 414.048 260.466C414.048 267.722 408.799 272.971 401.132 272.971Z" fill="#A2E9F4"/>
<path d="M151.184 375.032V378.824H124.736V375.032H136.112V370.28H140.912V375.032H151.184ZM158.528 401.672V393.896H152.336V389.864H158.528V384.296H152.336V380.264H158.528V371H163.232V401.672H158.528ZM138.512 397.88C131.792 397.88 126.608 394.952 126.608 389.576C126.608 384.248 131.792 381.272 138.512 381.272C145.232 381.272 150.368 384.248 150.368 389.576C150.368 394.952 145.232 397.88 138.512 397.88ZM138.512 384.92C133.904 384.92 131.168 386.936 131.168 389.576C131.168 392.264 133.904 394.28 138.512 394.28C143.072 394.28 145.808 392.264 145.808 389.576C145.808 386.936 143.072 384.92 138.512 384.92ZM133.136 407.24H164.192V411.464H128.336V399.8H133.136V407.24ZM205.708 371H210.22V411.992H205.708V392.024H199.036V411.272H194.524V371.24H199.036V387.512H205.708V371ZM183.916 376.808C183.868 381.416 183.628 385.544 183.196 389.192L193.18 406.76L189.292 408.968L181.996 395.72C179.98 404.024 176.38 408.632 171.148 409.544V404.888C176.572 403.4 179.26 392.552 179.356 376.808H171.772V372.488H191.068V376.808H183.916Z" fill="white"/>
<path d="M232.497 411.699V401.295L275.949 357.69C291.555 341.931 297.675 331.986 297.675 323.265C297.675 308.883 287.883 300.468 272.583 300.468C256.059 300.468 247.185 313.014 247.185 326.631H231.12C231.12 304.446 247.185 286.239 272.736 286.239C297.369 286.239 313.587 301.08 313.587 323.112C313.587 336.27 306.09 347.439 287.73 366.258L255.6 397.776H317.718V411.699H232.497ZM375.743 414.453C350.039 414.453 332.291 400.071 332.291 379.569C332.291 361.056 346.979 350.805 357.995 348.204C348.509 345.297 336.575 335.352 336.575 319.746C336.575 301.386 352.334 286.239 375.743 286.239C398.999 286.239 414.758 301.539 414.758 319.746C414.758 335.352 402.824 345.297 393.338 348.204C404.507 350.805 419.042 361.056 419.042 379.569C419.042 400.071 401.294 414.453 375.743 414.453ZM375.743 341.013C389.666 341.013 399.458 331.833 399.458 320.205C399.458 308.883 390.125 299.703 375.743 299.703C361.361 299.703 352.028 308.577 352.028 319.899C352.028 331.68 361.82 341.013 375.743 341.013ZM375.743 400.989C392.573 400.989 403.436 391.35 403.436 378.651C403.436 365.799 391.655 355.854 375.743 355.854C359.678 355.854 347.897 365.799 347.897 378.651C347.897 391.35 358.76 400.989 375.743 400.989Z" fill="white"/>
<path d="M170.185 56.9513C125.04 56.9513 88.3122 93.6787 88.3122 138.824C88.3122 148.77 90.1069 158.378 93.5377 167.52C81.0143 172.934 70.9599 183.296 66.4086 196.504C46.4386 199.211 31 216.374 31 237.068C31 259.636 49.3637 278.01 71.9415 278.01H153.815C176.383 278.01 194.756 259.646 194.756 237.068C194.756 230.246 192.952 223.881 189.987 218.219C226.109 209.364 252.068 177.208 252.068 138.815C252.068 93.6688 215.341 56.9414 170.195 56.9414L170.185 56.9513ZM153.815 261.629H71.9415C58.3968 261.629 47.3806 250.613 47.3806 237.068C47.3806 223.524 58.3968 212.507 71.9415 212.507H72.7645C76.6614 212.507 80.0228 209.761 80.7863 205.933C83.8502 190.772 97.3453 179.756 112.883 179.756C128.421 179.756 141.916 190.772 144.97 205.933C145.743 209.761 149.105 212.507 153.002 212.507H153.825C167.369 212.507 178.386 223.524 178.386 237.068C178.386 250.613 167.369 261.629 153.825 261.629H153.815ZM177.493 203.861C172.208 200.083 166.06 197.406 159.328 196.494C152.615 176.98 134.003 163.385 112.873 163.385C111.782 163.385 110.731 163.574 109.651 163.643C106.418 155.78 104.683 147.471 104.683 138.824C104.683 102.712 134.063 73.322 170.185 73.322C206.308 73.322 235.688 102.702 235.688 138.824C235.688 172.488 210.76 200.192 177.503 203.861H177.493Z" fill="white"/>
<path d="M170.185 40.5709C174.717 40.5709 178.376 36.912 178.376 32.3806V24.1903C178.376 19.6589 174.717 16 170.185 16C165.654 16 161.995 19.6589 161.995 24.1903V32.3806C161.995 36.912 165.664 40.5709 170.185 40.5709Z" fill="white"/>
<path d="M109.879 50.7346C111.396 53.3622 114.142 54.8297 116.978 54.8297C118.366 54.8297 119.774 54.4728 121.073 53.7291C124.99 51.4683 126.329 46.451 124.058 42.5443L119.963 35.4645C117.692 31.538 112.695 30.1894 108.778 32.47C104.851 34.7308 103.523 39.7382 105.783 43.6548L109.879 50.7346Z" fill="white"/>
<path d="M66.8152 88.6016L73.9048 92.6968C75.1939 93.4405 76.6019 93.7974 78 93.7974C80.8358 93.7974 83.5825 92.32 85.0995 89.7023C87.3603 85.7757 86.0118 80.7782 82.105 78.5175L75.0154 74.4223C71.0888 72.1417 66.0814 73.5002 63.8207 77.4168C61.5599 81.3335 62.9084 86.3409 66.8152 88.6016Z" fill="white"/>
<path d="M55.561 147.004H63.7512C68.2728 147.004 71.9415 143.345 71.9415 138.814C71.9415 134.282 68.2728 130.624 63.7512 130.624H55.561C51.0394 130.624 47.3707 134.282 47.3707 138.814C47.3707 143.345 51.0394 147.004 55.561 147.004Z" fill="white"/>
<path d="M230.492 226.915C228.221 222.988 223.194 221.659 219.307 223.92C215.381 226.181 214.042 231.198 216.313 235.105L220.408 242.185C221.935 244.812 224.672 246.28 227.508 246.28C228.896 246.28 230.304 245.923 231.593 245.179C235.519 242.919 236.858 237.901 234.587 233.994L230.492 226.915Z" fill="white"/>
<path d="M273.546 189.047L266.466 184.952C262.549 182.691 257.542 184.03 255.281 187.946C253.02 191.863 254.369 196.87 258.276 199.131L265.355 203.226C266.644 203.97 268.052 204.327 269.441 204.327C272.276 204.327 275.023 202.859 276.54 200.232C278.811 196.315 277.462 191.308 273.546 189.047Z" fill="white"/>
<path d="M284.81 130.635H276.619C272.088 130.635 268.429 134.294 268.429 138.825C268.429 143.356 272.088 147.015 276.619 147.015H284.81C289.341 147.015 293 143.356 293 138.825C293 134.294 289.341 130.635 284.81 130.635Z" fill="white"/>
<path d="M262.381 93.788C263.769 93.788 265.177 93.431 266.466 92.6873L273.546 88.5922C277.472 86.3314 278.811 81.3241 276.54 77.4074C274.279 73.4808 269.252 72.1521 265.355 74.4129L258.276 78.508C254.349 80.7688 253.01 85.7762 255.281 89.6928C256.798 92.3205 259.545 93.788 262.381 93.788Z" fill="white"/>
<path d="M219.307 53.7291C220.596 54.4728 222.004 54.8297 223.392 54.8297C226.228 54.8297 228.975 53.3622 230.492 50.7346L234.587 43.6549C236.848 39.7382 235.499 34.7308 231.593 32.47C227.676 30.1994 222.659 31.5479 220.408 35.4646L216.313 42.5443C214.042 46.461 215.391 51.4683 219.307 53.7291Z" fill="white"/>
<defs>
<filter id="filter0_d_27_268" x="0" y="0" width="923" height="456" filterUnits="userSpaceOnUse" color-interpolation-filters="sRGB">
<feFlood flood-opacity="0" result="BackgroundImageFix"/>
<feColorMatrix in="SourceAlpha" type="matrix" values="0 0 0 0 0 0 0 0 0 0 0 0 0 0 0 0 0 0 127 0" result="hardAlpha"/>
<feOffset dy="8"/>
<feGaussianBlur stdDeviation="4"/>
<feComposite in2="hardAlpha" operator="out"/>
<feColorMatrix type="matrix" values="0 0 0 0 0 0 0 0 0 0 0 0 0 0 0 0 0 0 0.25 0"/>
<feBlend mode="normal" in2="BackgroundImageFix" result="effect1_dropShadow_27_268"/>
<feBlend mode="normal" in="SourceGraphic" in2="effect1_dropShadow_27_268" result="shape"/>
</filter>
<filter id="filter1_d_27_268" x="0" y="-9.99976" width="933.976" height="466" filterUnits="userSpaceOnUse" color-interpolation-filters="sRGB">
<feFlood flood-opacity="0" result="BackgroundImageFix"/>
<feColorMatrix in="SourceAlpha" type="matrix" values="0 0 0 0 0 0 0 0 0 0 0 0 0 0 0 0 0 0 127 0" result="hardAlpha"/>
<feOffset dy="8"/>
<feGaussianBlur stdDeviation="4"/>
<feComposite in2="hardAlpha" operator="out"/>
<feColorMatrix type="matrix" values="0 0 0 0 0 0 0 0 0 0 0 0 0 0 0 0 0 0 0.25 0"/>
<feBlend mode="normal" in2="BackgroundImageFix" result="effect1_dropShadow_27_268"/>
<feBlend mode="normal" in="SourceGraphic" in2="effect1_dropShadow_27_268" result="shape"/>
</filter>
<filter id="filter2_d_27_268" x="-1" y="0" width="933.976" height="456" filterUnits="userSpaceOnUse" color-interpolation-filters="sRGB">
<feFlood flood-opacity="0" result="BackgroundImageFix"/>
<feColorMatrix in="SourceAlpha" type="matrix" values="0 0 0 0 0 0 0 0 0 0 0 0 0 0 0 0 0 0 127 0" result="hardAlpha"/>
<feOffset dy="8"/>
<feGaussianBlur stdDeviation="4"/>
<feComposite in2="hardAlpha" operator="out"/>
<feColorMatrix type="matrix" values="0 0 0 0 0 0 0 0 0 0 0 0 0 0 0 0 0 0 0.25 0"/>
<feBlend mode="normal" in2="BackgroundImageFix" result="effect1_dropShadow_27_268"/>
<feBlend mode="normal" in="SourceGraphic" in2="effect1_dropShadow_27_268" result="shape"/>
</filter>
<radialGradient id="paint0_radial_27_268" cx="0" cy="0" r="1" gradientUnits="userSpaceOnUse" gradientTransform="translate(206.192 -71.0992) scale(1137.4 837.226)">
<stop stop-color="#006AFF"/>
<stop offset="1" stop-color="#00409B"/>
</radialGradient>
<linearGradient id="paint1_linear_27_268" x1="1083.8" y1="-7.90277" x2="729.822" y2="499.569" gradientUnits="userSpaceOnUse">
<stop stop-color="white"/>
<stop offset="0.07" stop-color="white" stop-opacity="0.84"/>
<stop offset="0.16" stop-color="white" stop-opacity="0.64"/>
<stop offset="0.26" stop-color="white" stop-opacity="0.47"/>
<stop offset="0.36" stop-color="white" stop-opacity="0.33"/>
<stop offset="0.47" stop-color="white" stop-opacity="0.21"/>
<stop offset="0.58" stop-color="white" stop-opacity="0.12"/>
<stop offset="0.7" stop-color="white" stop-opacity="0.05"/>
<stop offset="0.83" stop-color="white" stop-opacity="0.01"/>
<stop offset="1" stop-color="white" stop-opacity="0"/>
</linearGradient>
<linearGradient id="paint2_linear_27_268" x1="331.609" y1="-302.008" x2="-22.3643" y2="205.464" gradientUnits="userSpaceOnUse">
<stop stop-color="white"/>
<stop offset="1" stop-color="white" stop-opacity="0"/>
</linearGradient>
<linearGradient id="paint3_linear_27_268" x1="388.339" y1="251.193" x2="330.436" y2="143.694" gradientUnits="userSpaceOnUse">
<stop offset="0.19" stop-opacity="0"/>
<stop offset="0.67" stop-color="#060606" stop-opacity="0.48"/>
<stop offset="0.7" stop-color="#0F0E0E" stop-opacity="0.63"/>
<stop offset="0.78" stop-color="#1C1A1B" stop-opacity="0.84"/>
<stop offset="0.86" stop-color="#242122" stop-opacity="0.96"/>
<stop offset="1" stop-color="#272425"/>
</linearGradient>
<linearGradient id="paint4_linear_27_268" x1="271.454" y1="74.4456" x2="36.5503" y2="499.588" gradientUnits="userSpaceOnUse">
<stop offset="0.19" stop-opacity="0"/>
<stop offset="0.67" stop-color="#060606" stop-opacity="0.57"/>
<stop offset="0.7" stop-color="#0E0D0E" stop-opacity="0.68"/>
<stop offset="0.78" stop-color="#1C1A1B" stop-opacity="0.86"/>
<stop offset="0.86" stop-color="#242122" stop-opacity="0.97"/>
<stop offset="1" stop-color="#272425"/>
</linearGradient>
<linearGradient id="paint5_linear_27_268" x1="547.675" y1="360.891" x2="50.5371" y2="477.62" gradientUnits="userSpaceOnUse">
<stop offset="0.19" stop-opacity="0"/>
<stop offset="0.67" stop-color="#060606" stop-opacity="0.57"/>
<stop offset="0.7" stop-color="#0E0D0E" stop-opacity="0.68"/>
<stop offset="0.78" stop-color="#1C1A1B" stop-opacity="0.86"/>
<stop offset="0.86" stop-color="#242122" stop-opacity="0.97"/>
<stop offset="1" stop-color="#272425"/>
</linearGradient>
<linearGradient id="paint6_linear_27_268" x1="536.158" y1="-218.732" x2="236.84" y2="214.429" gradientUnits="userSpaceOnUse">
<stop stop-color="white"/>
<stop offset="1" stop-color="white" stop-opacity="0"/>
</linearGradient>
<linearGradient id="paint7_linear_27_268" x1="319.969" y1="215.761" x2="20.6506" y2="648.922" gradientUnits="userSpaceOnUse">
<stop stop-color="white"/>
<stop offset="1" stop-color="white" stop-opacity="0"/>
</linearGradient>
<radialGradient id="paint8_radial_27_268" cx="0" cy="0" r="1" gradientUnits="userSpaceOnUse" gradientTransform="translate(205.192 -59.7416) scale(1137.4 818.621)">
<stop stop-color="#006AFF"/>
<stop offset="1" stop-color="#00409B"/>
</radialGradient>
<linearGradient id="paint9_linear_27_268" x1="1082.8" y1="2.05084" x2="739.44" y2="505.487" gradientUnits="userSpaceOnUse">
<stop stop-color="white"/>
<stop offset="0.07" stop-color="white" stop-opacity="0.84"/>
<stop offset="0.16" stop-color="white" stop-opacity="0.64"/>
<stop offset="0.26" stop-color="white" stop-opacity="0.47"/>
<stop offset="0.36" stop-color="white" stop-opacity="0.33"/>
<stop offset="0.47" stop-color="white" stop-opacity="0.21"/>
<stop offset="0.58" stop-color="white" stop-opacity="0.12"/>
<stop offset="0.7" stop-color="white" stop-opacity="0.05"/>
<stop offset="0.83" stop-color="white" stop-opacity="0.01"/>
<stop offset="1" stop-color="white" stop-opacity="0"/>
</linearGradient>
<linearGradient id="paint10_linear_27_268" x1="387.339" y1="255.389" x2="331.428" y2="149.23" gradientUnits="userSpaceOnUse">
<stop offset="0.19" stop-opacity="0"/>
<stop offset="0.67" stop-color="#060606" stop-opacity="0.48"/>
<stop offset="0.7" stop-color="#0F0E0E" stop-opacity="0.63"/>
<stop offset="0.78" stop-color="#1C1A1B" stop-opacity="0.84"/>
<stop offset="0.86" stop-color="#242122" stop-opacity="0.96"/>
<stop offset="1" stop-color="#272425"/>
</linearGradient>
<linearGradient id="paint11_linear_27_268" x1="270.454" y1="82.5692" x2="43.5418" y2="502.582" gradientUnits="userSpaceOnUse">
<stop offset="0.19" stop-opacity="0"/>
<stop offset="0.67" stop-color="#060606" stop-opacity="0.57"/>
<stop offset="0.7" stop-color="#0E0D0E" stop-opacity="0.68"/>
<stop offset="0.78" stop-color="#1C1A1B" stop-opacity="0.86"/>
<stop offset="0.86" stop-color="#242122" stop-opacity="0.97"/>
<stop offset="1" stop-color="#272425"/>
</linearGradient>
<linearGradient id="paint12_linear_27_268" x1="546.675" y1="362.65" x2="50.7283" y2="481.746" gradientUnits="userSpaceOnUse">
<stop offset="0.19" stop-opacity="0"/>
<stop offset="0.67" stop-color="#060606" stop-opacity="0.57"/>
<stop offset="0.7" stop-color="#0E0D0E" stop-opacity="0.68"/>
<stop offset="0.78" stop-color="#1C1A1B" stop-opacity="0.86"/>
<stop offset="0.86" stop-color="#242122" stop-opacity="0.97"/>
<stop offset="1" stop-color="#272425"/>
</linearGradient>
<linearGradient id="paint13_linear_27_268" x1="535.158" y1="-204.094" x2="244.872" y2="225.544" gradientUnits="userSpaceOnUse">
<stop stop-color="white"/>
<stop offset="1" stop-color="white" stop-opacity="0"/>
</linearGradient>
<linearGradient id="paint14_linear_27_268" x1="1100.68" y1="-148.848" x2="810.385" y2="280.793" gradientUnits="userSpaceOnUse">
<stop stop-color="white"/>
<stop offset="1" stop-color="white" stop-opacity="0"/>
</linearGradient>
<linearGradient id="paint15_linear_27_268" x1="986.267" y1="-244.529" x2="695.97" y2="185.112" gradientUnits="userSpaceOnUse">
<stop stop-color="white"/>
<stop offset="1" stop-color="white" stop-opacity="0"/>
</linearGradient>
<linearGradient id="paint16_linear_27_268" x1="1108.58" y1="259.085" x2="818.294" y2="688.722" gradientUnits="userSpaceOnUse">
<stop stop-color="white"/>
<stop offset="1" stop-color="white" stop-opacity="0"/>
</linearGradient>
<linearGradient id="paint17_linear_27_268" x1="1080.22" y1="25.3087" x2="789.918" y2="454.95" gradientUnits="userSpaceOnUse">
<stop stop-color="white" stop-opacity="0"/>
<stop offset="0.45" stop-color="white" stop-opacity="0.44"/>
<stop offset="1" stop-color="white"/>
</linearGradient>
<clipPath id="clip0_27_268">
<rect x="8" width="440" height="440" rx="30" fill="white"/>
</clipPath>
<clipPath id="clip1_27_268">
<rect x="475" width="440" height="440" rx="30" fill="white"/>
</clipPath>
</defs>
</svg>
