<svg width="933" height="518" viewBox="0 0 933 518" fill="none" xmlns="http://www.w3.org/2000/svg">
<g filter="url(#filter0_d_24_250)">
<g clip-path="url(#clip0_24_250)">
<rect x="8" width="917" height="502" rx="30" fill="#D9D9D9"/>
<path d="M925 0.010376H8.01222V502H925V0.010376Z" fill="#00399E"/>
<mask id="mask0_24_250" style="mask-type:luminance" maskUnits="userSpaceOnUse" x="8" y="0" width="918" height="502">
<path d="M925 0.010376H8.01222V502H925V0.010376Z" fill="white"/>
</mask>
<g mask="url(#mask0_24_250)">
<path d="M925 0.010376H8.01222V502H925V0.010376Z" fill="url(#paint0_radial_24_250)"/>
</g>
<mask id="mask1_24_250" style="mask-type:luminance" maskUnits="userSpaceOnUse" x="3" y="0" width="922" height="503">
<path d="M3.99988 502L925 502L925 0.00012207L3.99988 0.00012207L3.99988 502Z" fill="white"/>
</mask>
<g mask="url(#mask1_24_250)">
<path style="mix-blend-mode:overlay" d="M925.012 0.0103149L307.451 504.912H678.098L925.012 306.11V0.0103149Z" fill="url(#paint1_linear_24_250)"/>
<path style="mix-blend-mode:overlay" d="M169.522 -328.087L-448.027 176.815H-77.3918L169.522 -21.9873V-328.087Z" fill="url(#paint2_linear_24_250)"/>
<path style="mix-blend-mode:soft-light" opacity="0.61" d="M19.3499 512.914L660.722 0.251265L791.123 0.0103149L19.3499 627.982V512.914Z" fill="url(#paint3_linear_24_250)"/>
<path style="mix-blend-mode:soft-light" d="M-79.1602 337.033L374.181 -36.4651H511.422L-79.1602 461.72V337.033Z" fill="url(#paint4_linear_24_250)"/>
<path style="mix-blend-mode:soft-light" d="M180.304 557.662L633.657 184.174H770.886L180.304 682.359V557.662Z" fill="url(#paint5_linear_24_250)"/>
<g style="mix-blend-mode:overlay" opacity="0.83">
<path d="M440.21 -179.886C451.68 -179.886 463.149 -176.312 471.905 -169.154C489.404 -154.847 489.404 -131.634 471.905 -117.327L157.623 139.627C140.124 153.934 111.745 153.934 94.2333 139.627C76.7343 125.32 76.7343 102.107 94.2333 87.8002L408.515 -169.154C417.271 -176.312 428.741 -179.886 440.21 -179.886Z" fill="url(#paint6_linear_24_250)"/>
</g>
<g style="mix-blend-mode:overlay">
<path d="M1008.21 -116.855C1019.68 -116.855 1031.15 -113.28 1039.9 -106.122C1057.4 -91.815 1057.4 -68.6025 1039.9 -54.2955L725.622 202.658C708.123 216.965 679.744 216.965 662.232 202.658C644.733 188.351 644.733 165.139 662.232 150.832L976.514 -106.122C985.27 -113.28 996.74 -116.855 1008.21 -116.855Z" fill="url(#paint7_linear_24_250)"/>
</g>
<g style="mix-blend-mode:overlay">
<path d="M893.293 -226.02C904.762 -226.02 916.232 -222.446 924.988 -215.287C942.487 -200.98 942.487 -177.768 924.988 -163.461L610.705 93.4929C593.207 107.8 564.827 107.8 547.316 93.4929C529.817 79.1859 529.817 55.9734 547.316 41.6664L861.598 -215.287C870.354 -222.446 881.823 -226.02 893.293 -226.02Z" fill="url(#paint8_linear_24_250)"/>
</g>
<g style="mix-blend-mode:overlay" opacity="0.44">
<path d="M223.075 304.825C234.545 304.825 246.014 308.399 254.77 315.558C272.269 329.865 272.269 353.077 254.77 367.384L-59.5122 624.338C-77.0112 638.645 -105.39 638.645 -122.902 624.338C-140.401 610.031 -140.401 586.818 -122.902 572.511L191.38 315.558C200.136 308.399 211.606 304.825 223.075 304.825Z" fill="url(#paint9_linear_24_250)"/>
</g>
<g style="mix-blend-mode:overlay">
<path d="M1016.14 348.569C1027.61 348.569 1039.08 352.144 1047.84 359.302C1065.34 373.609 1065.34 396.822 1047.84 411.129L733.555 668.082C716.056 682.389 687.677 682.389 670.165 668.082C652.666 653.775 652.666 630.563 670.165 616.256L984.447 359.302C993.203 352.144 1004.67 348.569 1016.14 348.569Z" fill="url(#paint10_linear_24_250)"/>
</g>
<g style="mix-blend-mode:overlay" opacity="0.36">
<path d="M987.652 81.8467C999.122 81.8467 1010.59 85.4209 1019.35 92.5794C1036.85 106.886 1036.85 130.099 1019.35 144.406L705.065 401.36C687.566 415.667 659.187 415.667 641.676 401.36C624.177 387.053 624.177 363.84 641.676 349.533L955.958 92.5794C964.713 85.4209 976.183 81.8467 987.652 81.8467Z" fill="url(#paint11_linear_24_250)"/>
</g>
</g>
<path d="M106.648 84.976V92.848H101.848V110.992H93.736V70H101.848V84.976H106.648ZM64.504 78.256V70.96H88.072V83.248C88.072 99.664 78.232 109.024 64.504 109.072V101.488C71.176 101.44 76.312 98.56 78.664 92.368H64.504V85.024H80.008V83.824V78.256H64.504ZM148.74 70.96V78.496H120.084V88.816H149.22V96.304H111.78V70.96H148.74ZM150.996 101.968V109.552H109.524V101.968H150.996ZM195.008 82.384V89.872H158.096V70.24H166.4V82.384H195.008ZM197.168 93.376V100.816H188.48V111.952H180.416V100.816H172.448V111.952H164.384V100.816H155.696V93.376H197.168ZM222.316 85.6C217.564 92.032 210.508 96.112 202.684 96.16V88.48C210.844 88.432 218.428 80.848 219.916 69.856L228.172 71.152C227.788 74.032 227.02 76.72 225.916 79.264L243.388 89.776L239.116 96.352L222.316 85.6ZM201.868 109.552V101.968H243.34V109.552H201.868ZM272.904 102.16H289.512V109.552H248.04V102.16H264.648V97.552H250.344V80.848H279.24V78.064H250.248V70.96H287.256V87.616H258.359V90.448H287.736V97.552H272.904V102.16ZM332.529 101.968H349.137V109.552H307.665V101.968H324.273V95.728H309.921V70.96H317.889V76.192H338.913V70.96H346.881V95.728H332.529V101.968ZM317.889 83.344V88.48H338.913V83.344H317.889ZM364.492 69.76V79.696H393.196V86.416H356.332V69.76H364.492ZM395.308 89.248V96.016H353.836V89.248H395.308ZM364.492 98.272V104.224H393.388V110.992H356.236V98.272H364.492Z" fill="#A4D8FF"/>
<path d="M117.868 146.56H124.668V157.712H117.868V177.976H106.376V135H117.868V146.56ZM100.188 152.476C100.188 163.016 92.572 169.884 81.352 169.884C70.132 169.884 62.516 163.016 62.516 152.476C62.516 142.004 70.132 135.068 81.352 135.068C92.572 135.068 100.188 142.004 100.188 152.476ZM73.94 152.476C73.94 157.508 77 160.296 81.352 160.296C85.704 160.296 88.764 157.508 88.764 152.476C88.764 147.444 85.704 144.656 81.352 144.656C77 144.656 73.94 147.444 73.94 152.476ZM78.972 172.74V182.736H118.684V193.072H67.276V172.74H78.972ZM165.938 147.376H173.69V135H185.182V178.044H173.69V157.372H165.938V147.376ZM149.482 160.024C144.994 166.076 138.058 170.428 129.762 170.632V160.228C137.582 159.616 142.478 152.884 143.498 145.472H130.578V135.68H167.57V145.472H155.058C154.922 147.308 154.582 149.144 154.038 150.912L170.086 161.996L163.626 170.156L149.482 160.024ZM144.926 182.804H185.998V193.072H133.23V172.74H144.926V182.804ZM229.376 180.288H252.904V191.032H194.152V180.288H217.68V171.448H197.348V136.36H208.636V143.772H238.42V136.36H249.708V171.448H229.376V180.288ZM208.636 153.904V161.18H238.42V153.904H208.636ZM291.93 157.644C286.422 165.872 274.93 169.884 260.922 169.884V159.752C274.454 159.616 283.838 154.72 283.838 146.9V145.608H260.922V135.68H295.534V144.996C295.534 145.676 295.534 146.356 295.466 147.036H304.51V135H316.002V178.044H304.51V157.644H291.93ZM275.746 182.804H316.818V193.072H264.05V172.74H275.746V182.804ZM398.703 147.92H405.367V158.732H398.703V178.996H387.211V135H398.703V147.92ZM368.919 157.576V145.132H346.207V135.408H380.343V157.576H368.919ZM383.879 168.592C380.275 170.156 374.427 170.7 368.647 170.7H344.031V161.112H352.055V150.368H363.411V161.112H368.851C374.223 161.112 380.275 160.568 383.879 159.004V168.592ZM359.059 174.78V183.28H399.519V193.072H347.431V174.78H359.059ZM465.609 135V193.072H454.117V135H465.609ZM445.685 136.36V168.32H423.449V180.016H436.029C441.537 180.016 447.521 178.86 451.057 177.228V187.564C447.521 189.332 441.333 190.352 435.553 190.352H412.025V158.12H434.261V146.696H411.889V136.36H445.685ZM507.288 157.1V135.272H517.896V192.052H507.288V184.572L498.38 189.672L491.036 177.16C487.636 185.592 482.196 190.08 474.852 190.352V179.404C480.496 178.724 484.032 168.184 484.236 151.864H475.736V141.596H484.236V134.796H495.116V141.596H503.548V151.864H495.116C495.048 155.944 494.844 159.752 494.368 163.22L507.288 184.096V167.912H500.964V157.1H507.288ZM521.908 135H532.652V193.072H521.908V135ZM587.386 135H598.062V193.072H587.386V135ZM572.562 147.308V135.272H583.102V192.052H572.562V176.276H561.818C557.194 185.592 549.51 190.216 541.078 190.352V179.608C549.714 178.928 555.358 170.428 555.358 154.108V146.696H541.078V136.36H566.306V147.308H572.562ZM565.286 165.6H572.562V157.984H566.17C566.034 160.704 565.694 163.22 565.286 165.6ZM100.528 204.7V212.044L79.924 260.12H67.004L86.112 215.444H62.448V204.7H100.528ZM167.234 224.216V235.368H160.434V261.072H148.942V203H160.434V224.216H167.234ZM107.53 214.832V204.36H140.374V220.068C140.374 243.664 127.658 258.352 107.53 258.352V247.472C121.47 247.336 128.678 237.068 128.678 220.068V214.832H107.53ZM215.985 203H227.477V261.072H215.985V203ZM198.645 214.9C198.509 220.136 198.033 224.964 197.217 229.384L214.081 251.28L204.969 258.08L193.273 242.168C188.581 252.504 181.169 258.284 172.329 258.352V246.792C180.829 245.84 186.677 233.532 187.085 214.9H173.961V204.36H211.089V214.9H198.645ZM285.561 207.08V215.852H254.417V207.08H264.549V202.116H275.973V207.08H285.561ZM303.037 203H313.577V240.536H303.037V226.732H298.345V239.924H287.941V203.272H298.345V216.328H303.037V203ZM284.745 228.772C284.745 235.912 278.489 240.196 270.397 240.196C262.305 240.196 256.049 235.912 256.049 228.772C256.049 221.632 262.305 217.348 270.397 217.348C278.489 217.348 284.745 221.632 284.745 228.772ZM266.045 228.772C266.045 230.812 267.949 232.104 270.397 232.104C272.845 232.104 274.749 230.812 274.749 228.772C274.749 226.664 272.845 225.44 270.397 225.44C267.949 225.44 266.045 226.664 266.045 228.772ZM259.177 251.96V242.576H313.577V261.752H302.017V251.96H259.177ZM365.863 203H377.355V234.416H365.863V203ZM342.471 223.468C337.507 229.52 330.299 233.6 321.935 234.008V223.74C331.115 222.652 337.507 214.56 337.711 203.272L349.271 203.952C349.271 207.76 348.591 211.432 347.299 214.9L363.415 224.896L357.567 233.192L342.471 223.468ZM325.403 261.072V236.456H377.355V261.072H325.403ZM336.895 245.908V251.62H365.863V245.908H336.895ZM433.994 248.492H445.35V259.032H386.598V248.492H397.954V235.912C392.174 232.648 388.842 227.616 388.842 221.564C388.842 210.616 399.654 203.068 415.974 203.068C432.294 203.068 443.106 210.616 443.106 221.564C443.106 227.616 439.774 232.648 433.994 235.912V248.492ZM415.974 213.404C407.202 213.404 401.014 216.6 401.014 221.564C401.014 226.46 407.202 229.724 415.974 229.724C424.746 229.724 430.934 226.46 430.934 221.564C430.934 216.6 424.746 213.404 415.974 213.404ZM409.446 239.584V248.492H422.502V239.584C420.462 239.856 418.286 239.992 415.974 239.992C413.662 239.992 411.486 239.856 409.446 239.584ZM481.044 224.76C474.312 233.668 464.248 239.108 453.164 239.108V228.228C464.724 228.228 475.468 218.164 477.576 202.796L489.272 204.632C488.728 208.576 487.708 212.316 486.212 215.716L510.76 229.996L504.844 239.38L481.044 224.76ZM487.232 235.436V248.288H510.76V259.032H452.008V248.288H475.536V235.436H487.232Z" fill="white"/>
</g>
</g>
<defs>
<filter id="filter0_d_24_250" x="0" y="0" width="933" height="518" filterUnits="userSpaceOnUse" color-interpolation-filters="sRGB">
<feFlood flood-opacity="0" result="BackgroundImageFix"/>
<feColorMatrix in="SourceAlpha" type="matrix" values="0 0 0 0 0 0 0 0 0 0 0 0 0 0 0 0 0 0 127 0" result="hardAlpha"/>
<feOffset dy="8"/>
<feGaussianBlur stdDeviation="4"/>
<feComposite in2="hardAlpha" operator="out"/>
<feColorMatrix type="matrix" values="0 0 0 0 0 0 0 0 0 0 0 0 0 0 0 0 0 0 0.25 0"/>
<feBlend mode="normal" in2="BackgroundImageFix" result="effect1_dropShadow_24_250"/>
<feBlend mode="normal" in="SourceGraphic" in2="effect1_dropShadow_24_250" result="shape"/>
</filter>
<radialGradient id="paint0_radial_24_250" cx="0" cy="0" r="1" gradientUnits="userSpaceOnUse" gradientTransform="translate(206.204 -68.1598) scale(1137.4 933.972)">
<stop stop-color="#006AFF"/>
<stop offset="0.025" stop-color="#0094FF"/>
<stop offset="1" stop-color="#0038FF"/>
</radialGradient>
<linearGradient id="paint1_linear_24_250" x1="1083.51" y1="2.3396" x2="676.069" y2="528.239" gradientUnits="userSpaceOnUse">
<stop stop-color="white"/>
<stop offset="0.07" stop-color="white" stop-opacity="0.84"/>
<stop offset="0.16" stop-color="white" stop-opacity="0.64"/>
<stop offset="0.26" stop-color="white" stop-opacity="0.47"/>
<stop offset="0.36" stop-color="white" stop-opacity="0.33"/>
<stop offset="0.47" stop-color="white" stop-opacity="0.21"/>
<stop offset="0.58" stop-color="white" stop-opacity="0.12"/>
<stop offset="0.7" stop-color="white" stop-opacity="0.05"/>
<stop offset="0.83" stop-color="white" stop-opacity="0.01"/>
<stop offset="1" stop-color="white" stop-opacity="0"/>
</linearGradient>
<linearGradient id="paint2_linear_24_250" x1="328.032" y1="-325.758" x2="-79.4091" y2="200.142" gradientUnits="userSpaceOnUse">
<stop stop-color="white"/>
<stop offset="1" stop-color="white" stop-opacity="0"/>
</linearGradient>
<linearGradient id="paint3_linear_24_250" x1="385.011" y1="291.381" x2="316.846" y2="177.446" gradientUnits="userSpaceOnUse">
<stop offset="0.19" stop-opacity="0"/>
<stop offset="0.67" stop-color="#060606" stop-opacity="0.48"/>
<stop offset="0.7" stop-color="#0F0E0E" stop-opacity="0.63"/>
<stop offset="0.78" stop-color="#1C1A1B" stop-opacity="0.84"/>
<stop offset="0.86" stop-color="#242122" stop-opacity="0.96"/>
<stop offset="1" stop-color="#272425"/>
</linearGradient>
<linearGradient id="paint4_linear_24_250" x1="267.615" y1="94.2055" x2="-8.36844" y2="543.905" gradientUnits="userSpaceOnUse">
<stop offset="0.19" stop-opacity="0"/>
<stop offset="0.67" stop-color="#060606" stop-opacity="0.57"/>
<stop offset="0.7" stop-color="#0E0D0E" stop-opacity="0.68"/>
<stop offset="0.78" stop-color="#1C1A1B" stop-opacity="0.86"/>
<stop offset="0.86" stop-color="#242122" stop-opacity="0.97"/>
<stop offset="1" stop-color="#272425"/>
</linearGradient>
<linearGradient id="paint5_linear_24_250" x1="545.044" y1="413.758" x2="40.7395" y2="520.367" gradientUnits="userSpaceOnUse">
<stop offset="0.19" stop-opacity="0"/>
<stop offset="0.67" stop-color="#060606" stop-opacity="0.57"/>
<stop offset="0.7" stop-color="#0E0D0E" stop-opacity="0.68"/>
<stop offset="0.78" stop-color="#1C1A1B" stop-opacity="0.86"/>
<stop offset="0.86" stop-color="#242122" stop-opacity="0.97"/>
<stop offset="1" stop-color="#272425"/>
</linearGradient>
<linearGradient id="paint6_linear_24_250" x1="533.477" y1="-232.857" x2="188.637" y2="216.435" gradientUnits="userSpaceOnUse">
<stop stop-color="white"/>
<stop offset="1" stop-color="white" stop-opacity="0"/>
</linearGradient>
<linearGradient id="paint7_linear_24_250" x1="1101.48" y1="-169.826" x2="756.625" y2="279.469" gradientUnits="userSpaceOnUse">
<stop stop-color="white"/>
<stop offset="1" stop-color="white" stop-opacity="0"/>
</linearGradient>
<linearGradient id="paint8_linear_24_250" x1="986.559" y1="-278.991" x2="641.708" y2="170.303" gradientUnits="userSpaceOnUse">
<stop stop-color="white"/>
<stop offset="1" stop-color="white" stop-opacity="0"/>
</linearGradient>
<linearGradient id="paint9_linear_24_250" x1="316.342" y1="251.854" x2="-28.4977" y2="701.146" gradientUnits="userSpaceOnUse">
<stop stop-color="white"/>
<stop offset="1" stop-color="white" stop-opacity="0"/>
</linearGradient>
<linearGradient id="paint10_linear_24_250" x1="1109.41" y1="295.598" x2="764.569" y2="744.89" gradientUnits="userSpaceOnUse">
<stop stop-color="white"/>
<stop offset="1" stop-color="white" stop-opacity="0"/>
</linearGradient>
<linearGradient id="paint11_linear_24_250" x1="1080.92" y1="28.8757" x2="736.068" y2="478.17" gradientUnits="userSpaceOnUse">
<stop stop-color="white" stop-opacity="0"/>
<stop offset="0.45" stop-color="white" stop-opacity="0.44"/>
<stop offset="1" stop-color="white"/>
</linearGradient>
<clipPath id="clip0_24_250">
<rect x="8" width="917" height="502" rx="30" fill="white"/>
</clipPath>
</defs>
</svg>
