<svg width="933" height="518" viewBox="0 0 933 518" fill="none" xmlns="http://www.w3.org/2000/svg">
<g filter="url(#filter0_d_27_266)">
<g style="mix-blend-mode:multiply">
<g clip-path="url(#clip0_27_266)">
<rect x="8" width="917" height="502" rx="30" fill="#D9D9D9"/>
<g filter="url(#filter1_d_27_266)">
<path d="M924.988 0.0102539H8V502H924.988V0.0102539Z" fill="#00069E"/>
<mask id="mask0_27_266" style="mask-type:luminance" maskUnits="userSpaceOnUse" x="8" y="0" width="917" height="502">
<path d="M924.988 0.0102539H8V502H924.988V0.0102539Z" fill="white"/>
</mask>
<g mask="url(#mask0_27_266)">
<path d="M924.988 0.0102539H8V502H924.988V0.0102539Z" fill="url(#paint0_radial_27_266)"/>
</g>
<mask id="mask1_27_266" style="mask-type:luminance" maskUnits="userSpaceOnUse" x="8" y="-1" width="918" height="503">
<path d="M8.98767 501.99L925.976 501.99L925.976 -0.00012207L8.98767 -0.00012207L8.98767 501.99Z" fill="white"/>
</mask>
<g mask="url(#mask1_27_266)">
<path style="mix-blend-mode:overlay" d="M925.988 0.0101318L311.117 504.901H680.149L925.988 306.103V0.0101318Z" fill="url(#paint1_linear_27_266)"/>
<path style="mix-blend-mode:overlay" d="M173.789 -328.08L-441.07 176.811H-72.0495L173.789 -21.9869V-328.08Z" fill="url(#paint2_linear_27_266)"/>
<path style="mix-blend-mode:soft-light" opacity="0.61" d="M24.2709 512.903L662.849 0.251077L792.682 0.0101318L24.2709 627.969V512.903Z" fill="url(#paint3_linear_27_266)"/>
<path style="mix-blend-mode:soft-light" d="M-73.8101 337.026L377.556 -36.4645H514.199L-73.8101 461.71V337.026Z" fill="url(#paint4_linear_27_266)"/>
<path style="mix-blend-mode:soft-light" d="M184.524 557.65L635.902 184.17H772.533L184.524 682.345V557.65Z" fill="url(#paint5_linear_27_266)"/>
<g style="mix-blend-mode:overlay" opacity="0.83">
<path d="M443.298 -179.883C454.717 -179.883 466.137 -176.308 474.854 -169.15C492.277 -154.843 492.277 -131.631 474.854 -117.325L161.941 139.624C144.519 153.931 116.263 153.931 98.8281 139.624C81.4053 125.317 81.4053 102.105 98.8281 87.7984L411.741 -169.15C420.459 -176.308 431.878 -179.883 443.298 -179.883Z" fill="url(#paint6_linear_27_266)"/>
</g>
<g style="mix-blend-mode:overlay">
<path d="M1008.82 -116.853C1020.24 -116.853 1031.66 -113.278 1040.38 -106.12C1057.8 -91.8134 1057.8 -68.6014 1040.38 -54.2947L727.466 202.654C710.043 216.96 681.788 216.96 664.353 202.654C646.93 188.347 646.93 165.135 664.353 150.828L977.266 -106.12C985.983 -113.278 997.403 -116.853 1008.82 -116.853Z" fill="url(#paint7_linear_27_266)"/>
</g>
<g style="mix-blend-mode:overlay">
<path d="M894.407 -226.015C905.826 -226.015 917.246 -222.441 925.963 -215.283C943.386 -200.976 943.386 -177.764 925.963 -163.457L613.05 93.4909C595.627 107.798 567.372 107.798 549.937 93.4909C532.514 79.1842 532.514 55.9722 549.937 41.6655L862.85 -215.283C871.567 -222.441 882.987 -226.015 894.407 -226.015Z" fill="url(#paint8_linear_27_266)"/>
</g>
<g style="mix-blend-mode:overlay" opacity="0.44">
<path d="M227.109 304.818C238.528 304.818 249.948 308.393 258.665 315.551C276.088 329.858 276.088 353.07 258.665 367.376L-54.2477 624.325C-71.6705 638.632 -99.926 638.632 -117.361 624.325C-134.784 610.018 -134.784 586.806 -117.361 572.499L195.552 315.551C204.269 308.393 215.689 304.818 227.109 304.818Z" fill="url(#paint9_linear_27_266)"/>
</g>
<g style="mix-blend-mode:overlay">
<path d="M1016.72 348.562C1028.14 348.562 1039.56 352.136 1048.28 359.295C1065.7 373.601 1065.7 396.813 1048.28 411.12L735.364 668.069C717.941 682.375 689.686 682.375 672.251 668.069C654.828 653.762 654.828 630.55 672.251 616.243L985.164 359.295C993.881 352.136 1005.3 348.562 1016.72 348.562Z" fill="url(#paint10_linear_27_266)"/>
</g>
<g style="mix-blend-mode:overlay" opacity="0.36">
<path d="M988.355 81.8447C999.775 81.8447 1011.19 85.4188 1019.91 92.5772C1037.33 106.884 1037.33 130.096 1019.91 144.403L706.999 401.351C689.576 415.658 661.32 415.658 643.885 401.351C626.463 387.044 626.463 363.832 643.885 349.526L956.798 92.5772C965.516 85.4188 976.935 81.8447 988.355 81.8447Z" fill="url(#paint11_linear_27_266)"/>
</g>
</g>
</g>
</g>
</g>
<path d="M56 162.5C56 142.894 71.8939 127 91.5 127H842.5C862.106 127 878 142.894 878 162.5C878 182.106 862.106 198 842.5 198H91.5C71.8939 198 56 182.106 56 162.5Z" fill="white" fill-opacity="0.7"/>
<path d="M180.196 159.938V168.308H137.752V159.938H144.772V148.004H138.238V139.58H179.71V148.004H173.176V159.938H180.196ZM153.952 148.004V159.938H163.996V148.004H153.952ZM135.646 174.464H182.302V182.996H135.646V174.464ZM224.957 138.5H233.489V184.616H224.957V138.5ZM213.347 155.834V138.716H221.771V183.806H213.347V164.474H209.621V155.834H213.347ZM196.877 174.68H200.333C203.951 174.68 208.271 174.14 211.079 173.114V180.782C208.325 181.916 203.411 182.456 199.523 182.456H188.399V157.13H199.253V147.356H188.399V139.58H207.677V164.798H196.877V174.68ZM262.537 156.05C257.191 163.286 249.253 167.876 240.451 167.93V159.29C249.631 159.236 258.163 150.704 259.837 138.338L269.125 139.796C268.693 143.036 267.829 146.06 266.587 148.922L286.243 160.748L281.437 168.146L262.537 156.05ZM239.533 182.996V174.464H286.189V182.996H239.533ZM349.919 147.194H355.319V156.05H349.919V172.628H340.793V138.5H349.919V147.194ZM322.703 156.806C318.869 162.314 313.253 166.04 306.611 166.364V157.886C313.901 157.022 318.707 148.868 318.869 138.716L328.049 139.256C328.049 142.82 327.455 146.33 326.321 149.57L339.443 159.344L333.989 165.716L322.703 156.806ZM318.491 168.47V176.408H350.567V184.616H309.203V168.47H318.491ZM394.248 138.5H403.374V162.368H394.248V154.592H387.228C385.392 159.398 380.208 162.314 373.188 162.314C364.332 162.314 358.392 157.67 358.392 150.434C358.392 143.252 364.332 138.554 373.188 138.554C380.1 138.554 385.23 141.416 387.12 146.06H394.248V138.5ZM373.188 154.97C376.698 154.97 378.912 153.188 378.912 150.434C378.912 147.68 376.698 145.898 373.188 145.898C369.678 145.898 367.464 147.68 367.464 150.434C367.464 153.188 369.678 154.97 373.188 154.97ZM394.41 167.012V163.988H403.374V184.616H362.658V163.988H371.622V167.012H394.41ZM371.622 177.38H394.41V174.086H371.622V177.38ZM445.058 154.916V146.222H413.036V138.5H454.346V154.916H445.058ZM410.498 156.806H457.154V164.582H438.47V173.222H429.236V164.582H410.498V156.806ZM422.486 168.254V177.002H454.994V184.616H413.198V168.254H422.486ZM520.884 147.68H526.284V156.536H520.884V172.628H511.758V138.5H520.884V147.68ZM506.844 152.378C506.844 160.748 500.796 166.202 491.886 166.202C482.976 166.202 476.928 160.748 476.928 152.378C476.928 144.062 482.976 138.554 491.886 138.554C500.796 138.554 506.844 144.062 506.844 152.378ZM486 152.378C486 156.374 488.43 158.588 491.886 158.588C495.342 158.588 497.772 156.374 497.772 152.378C497.772 148.382 495.342 146.168 491.886 146.168C488.43 146.168 486 148.382 486 152.378ZM489.996 168.47V176.408H521.532V184.616H480.708V168.47H489.996ZM559.057 148.328H565.213V138.5H574.339V172.682H565.213V156.266H559.057V148.328ZM545.989 158.372C542.425 163.178 536.917 166.634 530.329 166.796V158.534C536.539 158.048 540.427 152.702 541.237 146.816H530.977V139.04H560.353V146.816H550.417C550.309 148.274 550.039 149.732 549.607 151.136L562.351 159.938L557.221 166.418L545.989 158.372ZM542.371 176.462H574.987V184.616H533.083V168.47H542.371V176.462ZM630.17 155.348V164.204H624.77V184.616H615.644V138.5H624.77V155.348H630.17ZM603.116 139.742C603.116 146.708 602.468 152.972 601.334 158.372L614.672 177.164L607.22 182.402L598.04 168.956C594.26 177.596 588.482 182.402 581.462 182.456V173.06C588.86 172.196 593.774 158.696 593.828 139.418L603.116 139.742ZM668.02 169.982V148.058H635.836V139.58H677.524V169.982H668.02ZM657.868 174.464H680.062V182.996H633.406V174.464H648.418V156.428H657.868V174.464ZM749.192 155.348V164.204H743.792V184.616H734.666V138.5H743.792V155.348H749.192ZM722.138 139.742C722.138 146.708 721.49 152.972 720.356 158.372L733.694 177.164L726.242 182.402L717.062 168.956C713.282 177.596 707.504 182.402 700.484 182.456V173.06C707.882 172.196 712.796 158.696 712.85 139.418L722.138 139.742ZM789.849 138.5H798.327V184.616H789.849V138.5ZM778.401 147.14V138.716H786.717V183.806H778.401V169.442H774.459V160.964H778.401V155.618H774.459V147.14H778.401ZM761.553 174.68H765.171C768.789 174.68 773.109 174.14 775.917 173.114V180.782C773.163 181.916 768.249 182.456 764.361 182.456H753.237V157.13H763.821V147.356H753.237V139.58H772.083V164.798H761.553V174.68Z" fill="#001F77"/>
<path d="M56 340.5C56 320.894 71.8939 305 91.5 305H842.5C862.106 305 878 320.894 878 340.5C878 360.106 862.106 376 842.5 376H91.5C71.8939 376 56 360.106 56 340.5Z" fill="white" fill-opacity="0.7"/>
<path d="M154.25 316.5V339.072H145.124V316.5H154.25ZM139.778 317.04V338.1H111.158V317.04H139.778ZM120.176 330.756H130.76V324.384H120.176V330.756ZM154.25 340.692V354.462H122.066V356.298H154.736V362.616H113.048V348.846H145.232V347.01H112.94V340.692H154.25ZM199.389 316.5H207.489V362.616H199.389V316.5ZM188.859 327.678V316.716H196.743V361.806H188.859V348.468H185.025V339.99H188.859V336.156H185.025V327.678H188.859ZM182.595 325.41V351.978C183.945 351.762 185.187 351.438 186.159 351.006V358.728C183.405 359.97 179.031 360.456 174.981 360.456H161.265V352.626H163.803V325.41H161.643V317.58H185.025V325.41H182.595ZM171.741 325.41V352.626H174.657V325.41H171.741ZM248.093 331.998V323.898H216.233V316.5H257.273V331.998H248.093ZM237.941 334.158H260.189V341.448H213.533V334.158H228.761V327.3H237.941V334.158ZM236.861 343.824C249.281 343.824 257.921 346.524 257.921 353.49C257.921 360.456 249.281 363.156 236.861 363.156C224.441 363.156 215.801 360.456 215.801 353.49C215.801 346.524 224.441 343.824 236.861 343.824ZM236.861 356.244C243.557 356.244 248.201 355.38 248.201 353.49C248.201 351.654 243.557 350.736 236.861 350.736C230.165 350.736 225.521 351.654 225.521 353.49C225.521 355.38 230.165 356.244 236.861 356.244ZM308.784 325.68H314.184V334.536H308.784V350.628H299.658V316.5H308.784V325.68ZM293.772 324.438C293.772 337.83 282.108 344.202 266.286 344.202V336.156C277.032 336.048 284.484 332.16 284.484 325.95V324.924H266.286V317.04H293.772V324.438ZM277.356 346.632V354.408H309.432V362.616H268.068V346.632H277.356ZM366.127 324.492V333.24H360.727V343.932H351.601V316.5H360.727V324.492H366.127ZM333.511 335.562C329.947 339.99 324.493 343.122 317.959 343.284V335.076C324.115 334.644 328.003 329.838 328.813 324.708H318.607V317.04H347.983V324.708H338.047C337.939 326.004 337.669 327.3 337.291 328.542L349.711 336.264L345.013 342.906L333.511 335.562ZM319.795 353.382V345.552H360.727V363.156H351.439V353.382H319.795ZM405.057 316.5H414.183V340.368H405.057V332.592H398.037C396.201 337.398 391.017 340.314 383.997 340.314C375.141 340.314 369.201 335.67 369.201 328.434C369.201 321.252 375.141 316.554 383.997 316.554C390.909 316.554 396.039 319.416 397.929 324.06H405.057V316.5ZM383.997 332.97C387.507 332.97 389.721 331.188 389.721 328.434C389.721 325.68 387.507 323.898 383.997 323.898C380.487 323.898 378.273 325.68 378.273 328.434C378.273 331.188 380.487 332.97 383.997 332.97ZM405.219 345.012V341.988H414.183V362.616H373.467V341.988H382.431V345.012H405.219ZM382.431 355.38H405.219V352.086H382.431V355.38ZM444.634 315.744C456.73 315.744 465.586 318.012 465.586 324.438C465.586 330.864 456.73 333.132 444.634 333.132C432.538 333.132 423.682 330.864 423.682 324.438C423.682 318.012 432.538 315.744 444.634 315.744ZM444.634 322.278C437.776 322.278 433.348 322.926 433.348 324.438C433.348 326.004 437.776 326.598 444.634 326.598C451.492 326.598 455.92 326.004 455.92 324.438C455.92 322.926 451.492 322.278 444.634 322.278ZM467.962 334.644V341.286H421.306V334.644H467.962ZM465.262 343.068V355.11H432.97V356.676H465.748V362.616H424.06V350.358H456.352V348.792H423.952V343.068H465.262ZM523.97 316.5H533.096V362.616H523.97V316.5ZM504.368 341.34C496.052 341.34 490.22 336.318 490.22 329.082C490.22 321.9 496.052 316.824 504.368 316.824C512.63 316.824 518.462 321.9 518.462 329.082C518.462 336.318 512.63 341.34 504.368 341.34ZM504.368 324.114C501.074 324.114 498.914 326.274 498.914 329.082C498.914 331.89 501.074 334.05 504.368 334.05C507.662 334.05 509.768 331.89 509.768 329.082C509.768 326.274 507.662 324.114 504.368 324.114ZM488.384 343.878H509.39C513.656 343.878 518.462 343.446 521.324 342.204V350.412C518.462 351.654 513.818 352.086 509.228 352.086H508.85V362.616H499.724V352.086H488.384V343.878ZM571.432 319.632V326.76H539.896V319.632H551.02V315.69H560.308V319.632H571.432ZM583.636 327.192H589.036V336.048H583.636V350.898H574.51V316.5H583.636V327.192ZM555.664 347.064C547.996 347.064 541.516 343.824 541.516 337.56C541.516 331.296 547.996 328.056 555.664 328.056C563.332 328.056 569.812 331.296 569.812 337.56C569.812 343.824 563.332 347.064 555.664 347.064ZM555.664 334.644C552.37 334.644 550.21 335.94 550.21 337.56C550.21 339.18 552.37 340.476 555.664 340.476C558.958 340.476 561.118 339.18 561.118 337.56C561.118 335.94 558.958 334.644 555.664 334.644ZM552.208 348.414V354.678H584.284V362.616H542.92V348.414H552.208ZM631.058 319.74V326.706H606.326V319.74H614.372V315.798H623.444V319.74H631.058ZM644.936 316.5H653.306V346.308H644.936V335.346H641.21V345.822H632.948V316.716H641.21V327.084H644.936V316.5ZM630.41 336.966C630.41 342.636 625.442 346.038 619.016 346.038C612.59 346.038 607.622 342.636 607.622 336.966C607.622 331.296 612.59 327.894 619.016 327.894C625.442 327.894 630.41 331.296 630.41 336.966ZM615.56 336.966C615.56 338.586 617.072 339.612 619.016 339.612C620.96 339.612 622.472 338.586 622.472 336.966C622.472 335.292 620.96 334.32 619.016 334.32C617.072 334.32 615.56 335.292 615.56 336.966ZM610.106 355.38V347.928H653.306V363.156H644.126V355.38H610.106ZM694.827 316.5H703.953V341.448H694.827V316.5ZM676.251 332.754C672.309 337.56 666.585 340.8 659.943 341.124V332.97C667.233 332.106 672.309 325.68 672.471 316.716L681.651 317.256C681.651 320.28 681.111 323.196 680.085 325.95L692.883 333.888L688.239 340.476L676.251 332.754ZM662.697 362.616V343.068H703.953V362.616H662.697ZM671.823 350.574V355.11H694.827V350.574H671.823ZM749.485 331.404C744.085 337.614 736.093 341.502 727.507 341.448V332.862C736.525 332.862 745.273 325.95 746.731 315.798L756.019 317.148C755.641 319.74 754.885 322.17 753.859 324.492L772.921 333.834L768.655 341.502L749.485 331.404ZM773.083 344.904V353.328H754.453V363.696H745.057V353.328H726.427V344.904H773.083ZM795.003 337.128C791.385 341.232 785.877 344.148 779.397 344.31V336.48C785.175 336.048 789.063 332.214 790.197 327.84H779.937V320.334H790.305V315.69H799.593V320.334H809.961V327.84H799.539C799.377 328.704 799.161 329.568 798.891 330.378L811.365 337.128L807.153 343.932L795.003 337.128ZM813.849 316.5H822.975V344.688H813.849V316.5ZM781.503 354.03V346.308H822.975V363.156H813.687V354.03H781.503Z" fill="#001F77"/>
<path d="M56 251.5C56 231.894 71.8939 216 91.5 216H842.5C862.106 216 878 231.894 878 251.5C878 271.106 862.106 287 842.5 287H91.5C71.8939 287 56 271.106 56 251.5Z" fill="white" fill-opacity="0.7"/>
<path d="M219.846 245.644L198.732 241.108C193.656 243.862 186.42 245.32 178.752 245.428V238.354C185.178 238.246 192.09 236.842 194.952 234.466H179.292V227.5H220.656V234.466H205.158C205.05 234.844 204.888 235.168 204.726 235.546L221.79 238.84L219.846 245.644ZM223.302 254.068H204.51V256.228C214.446 256.768 221.034 259.36 221.034 265.138C221.034 271.78 212.394 274.156 199.974 274.156C187.554 274.156 178.914 271.78 178.914 265.138C178.914 259.36 185.502 256.768 195.438 256.228V254.068H176.646V247.048H223.302V254.068ZM211.314 265.138C211.314 263.518 206.67 262.924 199.974 262.924C193.278 262.924 188.634 263.518 188.634 265.138C188.634 266.812 193.278 267.352 199.974 267.352C206.67 267.352 211.314 266.812 211.314 265.138ZM265.957 227.5H274.489V273.616H265.957V253.096H262.123V272.806H253.699V227.716H262.123V244.456H265.957V227.5ZM238.201 263.464H240.793C244.411 263.464 248.731 262.924 251.539 261.898V269.782C248.785 270.916 243.871 271.456 239.983 271.456H229.399V228.58H249.541V236.572H238.201V263.464ZM317.901 227.5H326.433V273.616H317.901V253.096H314.067V272.806H305.643V267.352L299.487 270.754L293.547 259.954C290.847 267.352 286.473 271.24 280.533 271.456V262.546C285.177 261.898 288.039 252.232 288.201 236.842H281.343V228.58H303.213V236.842H296.841C296.787 240.946 296.571 244.726 296.193 248.128L305.643 264.49V227.716H314.067V244.456H317.901V227.5ZM348.298 227.338V233.17H356.02V241.324H331.396V233.17H339.226V227.338H348.298ZM370.006 227.5H378.376V273.616H370.006V253.096H366.28V272.806H358.018V227.716H366.28V244.456H370.006V227.5ZM343.924 243.16C350.35 243.16 355.264 247.912 355.264 257.578C355.264 267.244 350.35 271.996 343.924 271.996C337.498 271.996 332.692 267.244 332.692 257.578C332.692 247.912 337.498 243.16 343.924 243.16ZM343.924 264.166C345.706 264.166 347.11 261.844 347.11 257.578C347.11 253.312 345.706 250.99 343.924 250.99C342.142 250.99 340.846 253.312 340.846 257.578C340.846 261.844 342.142 264.166 343.924 264.166ZM405.641 241.432C405.479 244.456 405.155 247.318 404.669 249.91L417.791 265.732L410.717 271.348L401.483 259.576C397.757 267.136 391.871 271.402 384.959 271.456V262.492C391.601 261.844 395.867 253.474 396.461 241.432H385.985V233.008H396.407V227.338H405.749V233.008H415.577V241.432H405.641ZM420.113 227.5H429.239V273.616H420.113V254.014H412.391V245.374H420.113V227.5ZM465.793 242.728V249.64H437.659V228.04H446.515V231.874H456.937V228.04H465.793V234.412H472.057V227.5H481.183V250.612H472.057V242.728H465.793ZM446.515 242.62H456.937V238.732H446.515V242.62ZM448.945 267.514H481.669V273.616H439.981V260.116H472.219V258.334H439.873V252.232H481.183V265.732H448.945V267.514ZM524 227.5H533.126V252.124H524V243.754H517.736V251.26H489.602V228.04H498.458V232.576H508.88V228.04H517.736V235.222H524V227.5ZM498.458 244.132H508.88V239.488H498.458V244.132ZM524.162 256.552V253.744H533.126V273.616H491.87V253.744H500.834V256.552H524.162ZM500.834 266.542H524.162V263.464H500.834V266.542ZM598.692 233.818H604.092V242.674H598.692V250.072H589.566V227.5H598.692V233.818ZM584.436 238.732C584.436 245.428 578.766 249.91 569.802 249.91C560.838 249.91 555.168 245.428 555.168 238.732C555.168 232.09 560.838 227.554 569.802 227.554C578.766 227.554 584.436 232.09 584.436 238.732ZM564.186 238.732C564.186 241.162 566.346 242.728 569.802 242.728C573.258 242.728 575.418 241.162 575.418 238.732C575.418 236.302 573.258 234.736 569.802 234.736C566.346 234.736 564.186 236.302 564.186 238.732ZM567.588 265.462V267.298H599.178V273.616H558.57V259.846H589.674V258.01H558.462V251.692H598.692V265.462H567.588ZM656.036 244.348V253.204H650.636V273.616H641.51V227.5H650.636V244.348H656.036ZM622.502 228.04C631.088 228.04 636.758 234.844 636.758 250.018C636.758 265.192 631.088 271.996 622.502 271.996C613.916 271.996 608.192 265.192 608.192 250.018C608.192 234.844 613.916 228.04 622.502 228.04ZM622.502 263.626C625.472 263.626 627.74 260.386 627.74 250.018C627.74 239.704 625.472 236.41 622.502 236.41C619.478 236.41 617.21 239.704 617.21 250.018C617.21 260.386 619.478 263.626 622.502 263.626ZM687.243 263.464H705.927V271.996H659.271V263.464H677.955V256.444H661.809V228.58H670.773V234.466H694.425V228.58H703.389V256.444H687.243V263.464ZM670.773 242.512V248.29H694.425V242.512H670.773ZM755.818 227.5V273.616H746.692V227.5H755.818ZM739.564 228.58V241.054C739.564 259.792 729.142 271.456 712.996 271.456V262.816C724.174 262.708 730.222 254.392 730.222 241.054V236.896H712.996V228.58H739.564Z" fill="#001F77"/>
<path d="M56 429.5C56 409.894 71.8939 394 91.5 394H842.5C862.106 394 878 409.894 878 429.5C878 449.106 862.106 465 842.5 465H91.5C71.8939 465 56 449.106 56 429.5Z" fill="white" fill-opacity="0.7"/>
<path d="M154.584 437.9V429.908H122.184V421.43H154.584V415.058H122.184V406.58H163.764V437.9H154.584ZM144.27 441.464H166.302V449.996H119.646V441.464H135.09V434.012H144.27V441.464ZM199.561 441.68H218.245V449.996H171.589V441.68H190.273V436.496H174.181V417.704H206.689V414.572H174.073V406.58H215.707V425.318H183.199V428.504H216.247V436.496H199.561V441.68ZM272.241 422.348V431.204H266.841V451.616H257.715V405.5H266.841V422.348H272.241ZM234.441 441.086H243.621C247.995 441.086 252.747 440.33 255.555 439.034V447.296C252.747 448.7 247.779 449.456 243.351 449.456H225.099V406.31H234.441V441.086ZM292 406.85V450.86H282.226V415.382H274.45V406.85H292ZM306.397 450.86L316.387 435.956C316.117 436.064 315.631 436.172 315.145 436.172C306.559 436.172 299.485 430.178 299.485 421.268C299.485 411.872 306.991 405.824 316.171 405.824C325.351 405.824 332.857 411.818 332.857 421.214C332.857 425.48 331.453 428.774 328.861 432.878L317.521 450.86H306.397ZM316.171 428.18C320.545 428.18 323.299 425.102 323.299 421.16C323.299 417.218 320.545 414.14 316.171 414.14C311.797 414.14 309.043 417.218 309.043 421.16C309.043 425.102 311.797 428.18 316.171 428.18ZM389.731 405.5H398.263V451.616H389.731V431.096H385.897V450.806H377.473V445.352L371.317 448.754L365.377 437.954C362.677 445.352 358.303 449.24 352.363 449.456V440.546C357.007 439.898 359.869 430.232 360.031 414.842H353.173V406.58H375.043V414.842H368.671C368.617 418.946 368.401 422.726 368.023 426.128L377.473 442.49V405.716H385.897V422.456H389.731V405.5ZM434.978 407.174V413.492H404.198V407.174H414.836V404.096H424.232V407.174H434.978ZM453.014 415.598V424.076H447.722V437.252H438.596V405.5H447.722V415.598H453.014ZM435.95 435.416C433.088 436.658 428.444 437.09 423.854 437.09H404.306V430.448H415.106V428.666C409.598 427.91 405.926 425.588 405.926 421.754C405.926 417.002 411.704 414.518 419.642 414.518C427.58 414.518 433.358 417.002 433.358 421.754C433.358 425.588 429.632 427.91 424.07 428.72V430.448C428.336 430.448 433.088 430.016 435.95 428.774V435.416ZM414.404 421.754C414.404 422.672 416.456 423.104 419.642 423.104C422.828 423.104 424.88 422.672 424.88 421.754C424.88 420.836 422.828 420.404 419.642 420.404C416.456 420.404 414.404 420.836 414.404 421.754ZM406.79 445.622V438.872H447.722V452.156H438.542V445.622H406.79ZM499.558 414.194H504.958V423.05H499.558V439.628H490.432V405.5H499.558V414.194ZM472.342 423.806C468.508 429.314 462.892 433.04 456.25 433.364V424.886C463.54 424.022 468.346 415.868 468.508 405.716L477.688 406.256C477.688 409.82 477.094 413.33 475.96 416.57L489.082 426.344L483.628 432.716L472.342 423.806ZM468.13 435.47V443.408H500.206V451.616H458.842V435.47H468.13ZM551.501 413.438H556.901V422.294H551.501V431.528H542.375V405.5H551.501V413.438ZM537.353 406.04V429.8H509.219V406.04H518.075V410.63H528.497V406.04H537.353ZM518.075 422.456H528.497V417.758H518.075V422.456ZM531.143 432.284C542.753 432.284 551.933 434.822 551.933 442.22C551.933 449.618 542.753 452.156 531.143 452.156C519.533 452.156 510.353 449.618 510.353 442.22C510.353 434.822 519.533 432.284 531.143 432.284ZM531.143 444.974C537.245 444.974 542.105 444.272 542.105 442.22C542.105 440.222 537.245 439.466 531.143 439.466C525.041 439.466 520.181 440.222 520.181 442.22C520.181 444.272 525.041 444.974 531.143 444.974ZM595.614 405.5H604.74V451.616H595.614V405.5ZM581.844 414.95C581.736 419.108 581.358 422.942 580.71 426.452L594.102 443.84L586.866 449.24L577.578 436.604C573.852 444.812 567.966 449.402 560.946 449.456V440.276C567.696 439.52 572.34 429.746 572.664 414.95H562.242V406.58H591.726V414.95H581.844ZM642.442 451.886C632.884 451.886 627.052 446.486 626.35 438.008H636.016C636.394 441.518 638.392 443.57 642.442 443.57C646.438 443.57 648.868 440.6 648.868 436.55C648.868 432.446 646.492 429.584 642.28 429.584C639.202 429.584 637.258 430.934 636.07 432.554H627.16L628.456 406.85H656.266V415.22H637.366L636.88 423.482C638.77 422.348 641.146 421.646 643.954 421.646C652.594 421.646 658.426 427.208 658.426 436.55C658.426 445.838 651.514 451.886 642.442 451.886ZM700.705 405.5H709.237V451.616H700.705V431.096H696.871V450.806H688.447V405.716H696.871V422.456H700.705V405.5ZM672.949 441.464H675.541C679.159 441.464 683.479 440.924 686.287 439.898V447.782C683.533 448.916 678.619 449.456 674.731 449.456H664.147V406.58H684.289V414.572H672.949V441.464ZM738.339 420.404C732.939 426.614 724.947 430.502 716.361 430.448V421.862C725.379 421.862 734.127 414.95 735.585 404.798L744.873 406.148C744.495 408.74 743.739 411.17 742.713 413.492L761.775 422.834L757.509 430.502L738.339 420.404ZM761.937 433.904V442.328H743.307V452.696H733.911V442.328H715.281V433.904H761.937ZM783.856 426.128C780.238 430.232 774.73 433.148 768.25 433.31V425.48C774.028 425.048 777.916 421.214 779.05 416.84H768.79V409.334H779.158V404.69H788.446V409.334H798.814V416.84H788.392C788.23 417.704 788.014 418.568 787.744 419.378L800.218 426.128L796.006 432.932L783.856 426.128ZM802.702 405.5H811.828V433.688H802.702V405.5ZM770.356 443.03V435.308H811.828V452.156H802.54V443.03H770.356Z" fill="#001F77"/>
<path d="M247.996 96.12L260.576 77.352C260.236 77.488 259.624 77.624 259.012 77.624C248.2 77.624 239.292 70.076 239.292 58.856C239.292 47.024 248.744 39.408 260.304 39.408C271.864 39.408 281.316 46.956 281.316 58.788C281.316 64.16 279.548 68.308 276.284 73.476L262.004 96.12H247.996ZM260.304 67.56C265.812 67.56 269.28 63.684 269.28 58.72C269.28 53.756 265.812 49.88 260.304 49.88C254.796 49.88 251.328 53.756 251.328 58.72C251.328 63.684 254.796 67.56 260.304 67.56ZM306.744 59.876C296.34 59.876 289.2 56.136 289.2 49.132C289.2 42.128 296.34 38.388 306.744 38.388C317.148 38.388 324.288 42.128 324.288 49.132C324.288 56.136 317.148 59.876 306.744 59.876ZM331.904 70.416V54.64H326.6V44.44H331.904V39H343.396V70.416H331.904ZM306.744 46.208C302.664 46.208 300.148 47.228 300.148 49.132C300.148 51.036 302.664 52.056 306.744 52.056C310.824 52.056 313.34 51.036 313.34 49.132C313.34 47.228 310.824 46.208 306.744 46.208ZM302.664 89.864H344.076V97.072H291.512V81.704H332.176V79.664H291.376V72.456H301.032V69.736H286.82V61.508H313.544C318.916 61.508 324.968 60.828 328.572 59.468V67.628C324.968 69.192 319.12 69.736 313.34 69.736H312.32V72.456H343.396V87.824H302.664V89.864ZM408.534 39V97.072H397.042V39H408.534ZM372.358 39.408C383.102 39.408 390.854 46.888 390.854 58.244C390.854 69.6 383.102 77.08 372.358 77.08C361.546 77.08 353.794 69.6 353.794 58.244C353.794 46.888 361.546 39.408 372.358 39.408ZM372.358 49.676C367.734 49.676 364.878 53.348 364.878 58.244C364.878 63.208 367.734 66.812 372.358 66.812C376.914 66.812 379.838 63.208 379.838 58.244C379.838 53.348 376.914 49.676 372.358 49.676ZM393.71 91.904C390.106 93.536 383.986 94.352 378.206 94.352H352.23V83.608H378.682C384.054 83.608 390.106 82.928 393.71 81.296V91.904ZM491.235 50.56H498.035V61.712H491.235V81.976H479.743V39H491.235V50.56ZM473.555 56.476C473.555 67.016 465.939 73.884 454.719 73.884C443.499 73.884 435.883 67.016 435.883 56.476C435.883 46.004 443.499 39.068 454.719 39.068C465.939 39.068 473.555 46.004 473.555 56.476ZM447.307 56.476C447.307 61.508 450.367 64.296 454.719 64.296C459.071 64.296 462.131 61.508 462.131 56.476C462.131 51.444 459.071 48.656 454.719 48.656C450.367 48.656 447.307 51.444 447.307 56.476ZM452.339 76.74V86.736H492.051V97.072H440.643V76.74H452.339ZM539.305 51.376H547.057V39H558.549V82.044H547.057V61.372H539.305V51.376ZM522.849 64.024C518.361 70.076 511.425 74.428 503.129 74.632V64.228C510.949 63.616 515.845 56.884 516.865 49.472H503.945V39.68H540.937V49.472H528.425C528.289 51.308 527.949 53.144 527.405 54.912L543.453 65.996L536.993 74.156L522.849 64.024ZM518.293 86.804H559.365V97.072H506.597V76.74H518.293V86.804ZM602.744 84.288H626.272V95.032H567.52V84.288H591.048V75.448H570.716V40.36H582.004V47.772H611.788V40.36H623.076V75.448H602.744V84.288ZM582.004 57.904V65.18H611.788V57.904H582.004ZM665.298 61.644C659.79 69.872 648.298 73.884 634.29 73.884V63.752C647.822 63.616 657.206 58.72 657.206 50.9V49.608H634.29V39.68H668.902V48.996C668.902 49.676 668.902 50.356 668.834 51.036H677.878V39H689.37V82.044H677.878V61.644H665.298ZM649.114 86.804H690.186V97.072H637.418V76.74H649.114V86.804Z" fill="white"/>
</g>
<defs>
<filter id="filter0_d_27_266" x="0" y="0" width="933" height="518" filterUnits="userSpaceOnUse" color-interpolation-filters="sRGB">
<feFlood flood-opacity="0" result="BackgroundImageFix"/>
<feColorMatrix in="SourceAlpha" type="matrix" values="0 0 0 0 0 0 0 0 0 0 0 0 0 0 0 0 0 0 127 0" result="hardAlpha"/>
<feOffset dy="8"/>
<feGaussianBlur stdDeviation="4"/>
<feComposite in2="hardAlpha" operator="out"/>
<feColorMatrix type="matrix" values="0 0 0 0 0 0 0 0 0 0 0 0 0 0 0 0 0 0 0.25 0"/>
<feBlend mode="normal" in2="BackgroundImageFix" result="effect1_dropShadow_27_266"/>
<feBlend mode="normal" in="SourceGraphic" in2="effect1_dropShadow_27_266" result="shape"/>
</filter>
<filter id="filter1_d_27_266" x="0" y="-0.00012207" width="933.976" height="518" filterUnits="userSpaceOnUse" color-interpolation-filters="sRGB">
<feFlood flood-opacity="0" result="BackgroundImageFix"/>
<feColorMatrix in="SourceAlpha" type="matrix" values="0 0 0 0 0 0 0 0 0 0 0 0 0 0 0 0 0 0 127 0" result="hardAlpha"/>
<feOffset dy="8"/>
<feGaussianBlur stdDeviation="4"/>
<feComposite in2="hardAlpha" operator="out"/>
<feColorMatrix type="matrix" values="0 0 0 0 0 0 0 0 0 0 0 0 0 0 0 0 0 0 0.25 0"/>
<feBlend mode="normal" in2="BackgroundImageFix" result="effect1_dropShadow_27_266"/>
<feBlend mode="normal" in="SourceGraphic" in2="effect1_dropShadow_27_266" result="shape"/>
</filter>
<radialGradient id="paint0_radial_27_266" cx="0" cy="0" r="1" gradientUnits="userSpaceOnUse" gradientTransform="translate(206.192 -68.16) scale(1137.4 933.972)">
<stop stop-color="#006AFF"/>
<stop offset="1" stop-color="#00409B"/>
</radialGradient>
<linearGradient id="paint1_linear_27_266" x1="1083.8" y1="2.33936" x2="675.923" y2="526.512" gradientUnits="userSpaceOnUse">
<stop stop-color="white"/>
<stop offset="0.07" stop-color="white" stop-opacity="0.84"/>
<stop offset="0.16" stop-color="white" stop-opacity="0.64"/>
<stop offset="0.26" stop-color="white" stop-opacity="0.47"/>
<stop offset="0.36" stop-color="white" stop-opacity="0.33"/>
<stop offset="0.47" stop-color="white" stop-opacity="0.21"/>
<stop offset="0.58" stop-color="white" stop-opacity="0.12"/>
<stop offset="0.7" stop-color="white" stop-opacity="0.05"/>
<stop offset="0.83" stop-color="white" stop-opacity="0.01"/>
<stop offset="1" stop-color="white" stop-opacity="0"/>
</linearGradient>
<linearGradient id="paint2_linear_27_266" x1="331.609" y1="-325.751" x2="-76.2634" y2="198.422" gradientUnits="userSpaceOnUse">
<stop stop-color="white"/>
<stop offset="1" stop-color="white" stop-opacity="0"/>
</linearGradient>
<linearGradient id="paint3_linear_27_266" x1="388.339" y1="291.375" x2="320.036" y2="177.704" gradientUnits="userSpaceOnUse">
<stop offset="0.19" stop-opacity="0"/>
<stop offset="0.67" stop-color="#060606" stop-opacity="0.48"/>
<stop offset="0.7" stop-color="#0F0E0E" stop-opacity="0.63"/>
<stop offset="0.78" stop-color="#1C1A1B" stop-opacity="0.84"/>
<stop offset="0.86" stop-color="#242122" stop-opacity="0.96"/>
<stop offset="1" stop-color="#272425"/>
</linearGradient>
<linearGradient id="paint4_linear_27_266" x1="271.454" y1="94.2034" x2="-5.0648" y2="542.823" gradientUnits="userSpaceOnUse">
<stop offset="0.19" stop-opacity="0"/>
<stop offset="0.67" stop-color="#060606" stop-opacity="0.57"/>
<stop offset="0.7" stop-color="#0E0D0E" stop-opacity="0.68"/>
<stop offset="0.78" stop-color="#1C1A1B" stop-opacity="0.86"/>
<stop offset="0.86" stop-color="#242122" stop-opacity="0.97"/>
<stop offset="1" stop-color="#272425"/>
</linearGradient>
<linearGradient id="paint5_linear_27_266" x1="547.675" y1="413.75" x2="45.3813" y2="519.473" gradientUnits="userSpaceOnUse">
<stop offset="0.19" stop-opacity="0"/>
<stop offset="0.67" stop-color="#060606" stop-opacity="0.57"/>
<stop offset="0.7" stop-color="#0E0D0E" stop-opacity="0.68"/>
<stop offset="0.78" stop-color="#1C1A1B" stop-opacity="0.86"/>
<stop offset="0.86" stop-color="#242122" stop-opacity="0.97"/>
<stop offset="1" stop-color="#272425"/>
</linearGradient>
<linearGradient id="paint6_linear_27_266" x1="536.158" y1="-232.853" x2="190.941" y2="214.981" gradientUnits="userSpaceOnUse">
<stop stop-color="white"/>
<stop offset="1" stop-color="white" stop-opacity="0"/>
</linearGradient>
<linearGradient id="paint7_linear_27_266" x1="1101.68" y1="-169.823" x2="756.454" y2="278.013" gradientUnits="userSpaceOnUse">
<stop stop-color="white"/>
<stop offset="1" stop-color="white" stop-opacity="0"/>
</linearGradient>
<linearGradient id="paint8_linear_27_266" x1="987.267" y1="-278.985" x2="642.038" y2="168.851" gradientUnits="userSpaceOnUse">
<stop stop-color="white"/>
<stop offset="1" stop-color="white" stop-opacity="0"/>
</linearGradient>
<linearGradient id="paint9_linear_27_266" x1="319.969" y1="251.849" x2="-25.2481" y2="699.682" gradientUnits="userSpaceOnUse">
<stop stop-color="white"/>
<stop offset="1" stop-color="white" stop-opacity="0"/>
</linearGradient>
<linearGradient id="paint10_linear_27_266" x1="1109.58" y1="295.592" x2="764.364" y2="743.426" gradientUnits="userSpaceOnUse">
<stop stop-color="white"/>
<stop offset="1" stop-color="white" stop-opacity="0"/>
</linearGradient>
<linearGradient id="paint11_linear_27_266" x1="1081.22" y1="28.8747" x2="735.987" y2="476.711" gradientUnits="userSpaceOnUse">
<stop stop-color="white" stop-opacity="0"/>
<stop offset="0.45" stop-color="white" stop-opacity="0.44"/>
<stop offset="1" stop-color="white"/>
</linearGradient>
<clipPath id="clip0_27_266">
<rect x="8" width="917" height="502" rx="30" fill="white"/>
</clipPath>
</defs>
</svg>
